<svg xmlns="http://www.w3.org/2000/svg" width="512" height="512" viewBox="0 0 512 512" version="1.1">
	<path d="M 225.500 23.080 C 151.227 29.025, 90.345 46.214, 51.114 72.315 C 44.276 76.865, 36.744 83.134, 29.941 89.938 C 14.256 105.627, 7.115 118.243, 3.870 136 C 2.084 145.776, 2.045 186.722, 3.809 201 C 17.788 314.184, 68.211 409.524, 138.425 455.531 C 172.749 478.022, 206.904 488.531, 249.500 489.708 C 288.821 490.794, 322.214 483.539, 354.517 466.890 C 434.606 425.614, 492.827 324.883, 508.197 201 C 510.122 185.489, 509.840 143.691, 507.744 133.790 C 504.195 117.026, 496.955 104.767, 481.578 89.484 C 463.771 71.786, 442.247 59.106, 410.043 47.341 C 359.884 29.017, 280.962 18.641, 225.500 23.080 M 129.558 117.459 C 117.878 121.717, 110.802 133.720, 113.891 144.032 C 115.540 149.533, 121.706 154.475, 136.683 162.296 C 156.073 172.423, 160.827 177.148, 159.504 184.979 C 158.253 192.380, 141.700 223.940, 120.730 258.906 C 111.145 274.886, 108.988 280.195, 108.277 289.550 C 106.096 318.255, 136.221 343.659, 180.039 350.066 C 191.505 351.743, 212.383 350.770, 222.500 348.089 C 232.509 345.436, 243.912 340.082, 250.685 334.857 L 255.883 330.847 261.192 334.854 C 274.355 344.792, 290.608 349.957, 311.161 350.734 C 342.994 351.938, 372.676 341.629, 390.104 323.317 C 400.483 312.412, 404.703 301.841, 403.650 289.386 C 402.859 280.034, 400.549 274.379, 391.041 258.524 C 371.126 225.316, 353.715 192.305, 352.385 185.233 C 350.933 177.511, 356.172 172.279, 375.318 162.331 C 396.007 151.582, 401.076 145.287, 398.102 134.039 C 395.236 123.199, 382.663 114.342, 373.666 116.827 C 366.688 118.753, 324.431 146.317, 313.777 155.892 C 308.596 160.549, 304.699 167.153, 303.617 173.111 C 302.019 181.916, 306.954 193.496, 322.536 217.500 C 350.150 260.039, 356.372 273.018, 354.565 284.320 C 351.750 301.927, 327.103 315.242, 307.744 309.614 C 300.964 307.643, 292.692 300.538, 288.796 293.339 C 282.197 281.146, 281.040 269.418, 280.330 207.500 C 279.810 162.178, 279.666 159.233, 277.748 154.706 C 273.518 144.725, 261.768 138.615, 251.306 140.956 C 244.218 142.542, 238.146 147.241, 234.884 153.665 L 232.268 158.817 231.695 207.158 C 230.957 269.460, 229.806 281.141, 223.204 293.339 C 219.308 300.538, 211.036 307.643, 204.256 309.614 C 184.897 315.242, 160.250 301.927, 157.435 284.320 C 155.628 273.018, 161.850 260.039, 189.464 217.500 C 205.066 193.465, 210.033 181.675, 208.325 172.727 C 206.142 161.292, 198.416 153.933, 167.317 133.669 C 140.992 116.515, 136.931 114.772, 129.558 117.459" stroke="none" fill="black" fill-rule="evenodd"/>
</svg>